# xmcd CD database file
#
# Track frame offsets:
#	150
#	20650
#	36347
#
# Disc length: 753 seconds
#
# Revision: 0
# Processed by: cddbd v1.5PL3 Copyright (c) Steve Scherf et al.
# Submitted via: CDex 1.51
#
DISCID=2002ef03
DTITLE=釈由美子 - ドラマティックに恋をして
DYEAR=2001
DGENRE=Pop
TTITLE0=ドラマティックに恋をして
TTITLE1=2人の温度
TTITLE2=ドラマティックに恋をして(Instrumental)
EXTD=YEAR: 2001
EXTT0=
EXTT1=
EXTT2=
PLAYORDER=
